<?xml version="1.0" encoding="UTF-8"?>
<!DOCTYPE svg PUBLIC "-//W3C//DTD SVG 1.1//EN" "http://www.w3.org/Graphics/SVG/1.1/DTD/svg11.dtd">
<!-- Creator: CorelDRAW X8 -->
<svg xmlns="http://www.w3.org/2000/svg" xml:space="preserve" width="35.4294mm" height="50.3308mm" version="1.1" style="shape-rendering:geometricPrecision; text-rendering:geometricPrecision; image-rendering:optimizeQuality; fill-rule:evenodd; clip-rule:evenodd"
viewBox="0 0 381 542"
 xmlns:xlink="http://www.w3.org/1999/xlink">
 <defs>
  <style type="text/css">
   <![CDATA[
    .fil0 {fill:#FEFEFE}
   ]]>
  </style>
 </defs>
 <g id="Слой_x0020_1">
  <metadata id="CorelCorpID_0Corel-Layer"/>
  <g id="_838982800">
   <path class="fil0" d="M109 528c30,8 47,15 83,13 75,-5 140,-49 170,-117 24,-53 18,-110 18,-174 0,-40 2,-159 0,-190l-137 -60c0,111 0,222 0,333 0,50 -16,92 -40,124 -29,40 -51,49 -88,67 -3,2 -2,1 -4,3l-2 1z"/>
   <path class="fil0" d="M64 326c-39,10 -74,48 -62,99 25,103 182,69 160,-37 -8,-39 -49,-74 -98,-62z"/>
  </g>
 </g>
</svg>
