<?xml version="1.0" encoding="UTF-8"?>
<!DOCTYPE svg PUBLIC "-//W3C//DTD SVG 1.1//EN" "http://www.w3.org/Graphics/SVG/1.1/DTD/svg11.dtd">
<!-- Creator: CorelDRAW X8 -->
<svg xmlns="http://www.w3.org/2000/svg" xml:space="preserve" width="55.9731mm" height="58.2161mm" version="1.1" style="shape-rendering:geometricPrecision; text-rendering:geometricPrecision; image-rendering:optimizeQuality; fill-rule:evenodd; clip-rule:evenodd"
viewBox="0 0 1572 1635"
 xmlns:xlink="http://www.w3.org/1999/xlink">
 <defs>
  <style type="text/css">
   <![CDATA[
    .str0 {stroke:#2B2A29;stroke-width:5.61721}
    .fil1 {fill:#FEFEFE}
    .fil0 {fill:#2B2A29}
   ]]>
  </style>
 </defs>
 <g id="Слой_x0020_1">
  <metadata id="CorelCorpID_0Corel-Layer"/>
  <rect class="fil0 str0" x="3" y="3" width="1566" height="1629" rx="180" ry="247"/>
  <g id="_922930368">
   <path class="fil1" d="M528 1479c77,19 123,39 217,33 194,-14 365,-129 444,-305 63,-140 47,-289 47,-455 0,-106 5,-416 0,-497l-359 -156c-1,290 0,579 0,869 0,132 -41,241 -103,324 -77,104 -133,129 -230,176 -8,4 -5,2 -10,6l-6 5z"/>
   <path class="fil1" d="M409 951c-102,25 -191,123 -160,257 64,269 475,182 416,-96 -21,-101 -128,-193 -256,-161z"/>
  </g>
 </g>
</svg>
